<?xml version="1.0" encoding="UTF-8"?>
<svg width="64" height="64" viewBox="0 0 64 64" fill="none" xmlns="http://www.w3.org/2000/svg">
  <!-- Soft teal background circle -->
  <circle cx="32" cy="32" r="30" fill="#CCFBF1"/>
  <!-- Card -->
  <rect x="14" y="18" width="36" height="26" rx="12" fill="#FFFFFF"/>
  <!-- Face (non-AI, calm) -->
  <circle cx="24" cy="30" r="3" fill="#0F172A"/>
  <circle cx="40" cy="30" r="3" fill="#0F172A"/>
  <path d="M26 37C27.5 39 29.5 40 32 40C34.5 40 36.5 39 38 37" stroke="#0F172A" stroke-width="1.8" stroke-linecap="round"/>
  <!-- Stethoscope style detail -->
  <path d="M20 26V34C20 37 22.5 39.5 25.5 39.5" stroke="#0D9488" stroke-width="1.6" stroke-linecap="round"/>
  <path d="M44 26V34C44 37 41.5 39.5 38.5 39.5" stroke="#0D9488" stroke-width="1.6" stroke-linecap="round"/>
  <!-- Medical cross badge -->
  <circle cx="46" cy="40" r="6" fill="#FFFFFF"/>
  <rect x="45.25" y="37.5" width="1.5" height="5" rx="0.75" fill="#0D9488"/>
  <rect x="43.5" y="39.25" width="5" height="1.5" rx="0.75" fill="#0D9488"/>
</svg>

